<?xml version="1.0" encoding="UTF-8" standalone="no"?><svg xmlns="http://www.w3.org/2000/svg" xmlns:xlink="http://www.w3.org/1999/xlink" contentStyleType="text/css" height="808px" preserveAspectRatio="none" style="width:1213px;height:808px;background:#FFFFFF;" version="1.1" viewBox="0 0 1213 808" width="1213px" zoomAndPan="magnify"><defs/><g><ellipse cx="511" cy="16" fill="#222222" rx="10" ry="10" style="stroke:none;stroke-width:1.0;"/><g id="Created"><rect fill="#F1F1F1" height="55.2188" rx="12.5" ry="12.5" style="stroke:#181818;stroke-width:0.5;" width="172" x="425" y="87"/><line style="stroke:#181818;stroke-width:0.5;" x1="425" x2="597" y1="114.6094" y2="114.6094"/><text fill="#000000" font-family="sans-serif" font-size="14" lengthAdjust="spacing" textLength="51" x="485.5" y="106.5332">Created</text><text fill="#000000" font-family="sans-serif" font-size="14" lengthAdjust="spacing" textLength="152" x="430" y="134.1426">Payment created via api</text></g><g id="Terminated"><rect fill="#F1F1F1" height="72.8281" rx="12.5" ry="12.5" style="stroke:#181818;stroke-width:0.5;" width="214" x="7" y="306"/><line style="stroke:#181818;stroke-width:0.5;" x1="7" x2="221" y1="333.6094" y2="333.6094"/><text fill="#000000" font-family="sans-serif" font-size="14" lengthAdjust="spacing" textLength="72" x="78" y="325.5332">Terminated</text><text fill="#000000" font-family="sans-serif" font-size="14" lengthAdjust="spacing" textLength="194" x="12" y="353.1426">The merchant has stopped the</text><text fill="#000000" font-family="sans-serif" font-size="14" lengthAdjust="spacing" textLength="152" x="12" y="370.752">process through the API</text></g><ellipse cx="426" cy="792" fill="none" rx="10" ry="10" style="stroke:#222222;stroke-width:1.0;"/><ellipse cx="426.5" cy="792.5" fill="#222222" rx="6" ry="6" style="stroke:none;stroke-width:1.0;"/><g id="Aborted"><rect fill="#F1F1F1" height="72.8281" rx="12.5" ry="12.5" style="stroke:#181818;stroke-width:0.5;" width="262" x="226" y="306"/><line style="stroke:#181818;stroke-width:0.5;" x1="226" x2="488" y1="333.6094" y2="333.6094"/><text fill="#000000" font-family="sans-serif" font-size="14" lengthAdjust="spacing" textLength="50" x="332" y="325.5332">Aborted</text><text fill="#000000" font-family="sans-serif" font-size="14" lengthAdjust="spacing" textLength="242" x="231" y="353.1426">The end user has actively stopped the</text><text fill="#000000" font-family="sans-serif" font-size="14" lengthAdjust="spacing" textLength="238" x="231" y="370.752">process by selecting Cancel or similar</text></g><g id="Expired"><rect fill="#F1F1F1" height="72.8281" rx="12.5" ry="12.5" style="stroke:#181818;stroke-width:0.5;" width="182" x="399" y="512"/><line style="stroke:#181818;stroke-width:0.5;" x1="399" x2="581" y1="539.6094" y2="539.6094"/><text fill="#000000" font-family="sans-serif" font-size="14" lengthAdjust="spacing" textLength="47" x="466.5" y="531.5332">Expired</text><text fill="#000000" font-family="sans-serif" font-size="14" lengthAdjust="spacing" textLength="162" x="404" y="559.1426">The payment session has</text><text fill="#000000" font-family="sans-serif" font-size="14" lengthAdjust="spacing" textLength="148" x="404" y="576.752">expired due to inactivity</text></g><g id="Authorised"><rect fill="#F1F1F1" height="73.498" rx="12.5" ry="12.5" style="stroke:#181818;stroke-width:0.5;" width="358" x="564" y="203"/><line style="stroke:#181818;stroke-width:0.5;" x1="564" x2="922" y1="230.6094" y2="230.6094"/><text fill="#000000" font-family="sans-serif" font-size="14" lengthAdjust="spacing" textLength="68" x="709" y="222.5332">Authorised</text><text fill="#000000" font-family="sans-serif" font-size="14" lengthAdjust="spacing" textLength="178" x="569" y="250.1426">User has approved payment</text><text fill="#000000" font-family="sans-serif" font-size="14" lengthAdjust="spacing" textLength="68" x="569" y="268.4219">Defined by</text><text fill="#000000" font-family="monospace" font-size="14" lengthAdjust="spacing" textLength="224" x="641" y="267.2939">$.aggregate.authorisedAmount</text><text fill="#000000" font-family="sans-serif" font-size="14" lengthAdjust="spacing" textLength="38" x="869" y="268.4219">object</text></g><g id="Capture"><rect fill="#F1F1F1" height="73.498" rx="12.5" ry="12.5" style="stroke:#181818;stroke-width:0.5;" width="342" x="565" y="409"/><line style="stroke:#181818;stroke-width:0.5;" x1="565" x2="907" y1="436.6094" y2="436.6094"/><text fill="#000000" font-family="sans-serif" font-size="14" lengthAdjust="spacing" textLength="51" x="710.5" y="428.5332">Capture</text><text fill="#000000" font-family="sans-serif" font-size="14" lengthAdjust="spacing" textLength="214" x="570" y="456.1426">Payment fully or partially captured</text><text fill="#000000" font-family="sans-serif" font-size="14" lengthAdjust="spacing" textLength="68" x="570" y="474.4219">Defined by</text><text fill="#000000" font-family="monospace" font-size="14" lengthAdjust="spacing" textLength="208" x="642" y="473.2939">$.aggregate.capturedAmount</text><text fill="#000000" font-family="sans-serif" font-size="14" lengthAdjust="spacing" textLength="38" x="854" y="474.4219">object</text></g><g id="Refund"><rect fill="#F1F1F1" height="73.498" rx="12.5" ry="12.5" style="stroke:#181818;stroke-width:0.5;" width="342" x="479" y="615"/><line style="stroke:#181818;stroke-width:0.5;" x1="479" x2="821" y1="642.6094" y2="642.6094"/><text fill="#000000" font-family="sans-serif" font-size="14" lengthAdjust="spacing" textLength="46" x="627" y="634.5332">Refund</text><text fill="#000000" font-family="sans-serif" font-size="14" lengthAdjust="spacing" textLength="215" x="484" y="662.1426">Payment fully or partially refunded</text><text fill="#000000" font-family="sans-serif" font-size="14" lengthAdjust="spacing" textLength="68" x="484" y="680.4219">Defined by</text><text fill="#000000" font-family="monospace" font-size="14" lengthAdjust="spacing" textLength="208" x="556" y="679.2939">$.aggregate.refundedAmount</text><text fill="#000000" font-family="sans-serif" font-size="14" lengthAdjust="spacing" textLength="38" x="768" y="680.4219">object</text></g><g id="Cancel"><rect fill="#F1F1F1" height="73.498" rx="12.5" ry="12.5" style="stroke:#181818;stroke-width:0.5;" width="350" x="856" y="615"/><line style="stroke:#181818;stroke-width:0.5;" x1="856" x2="1206" y1="642.6094" y2="642.6094"/><text fill="#000000" font-family="sans-serif" font-size="14" lengthAdjust="spacing" textLength="44" x="1009" y="634.5332">Cancel</text><text fill="#000000" font-family="sans-serif" font-size="14" lengthAdjust="spacing" textLength="273" x="861" y="662.1426">Cancels the remaining un-captured amount</text><text fill="#000000" font-family="sans-serif" font-size="14" lengthAdjust="spacing" textLength="68" x="861" y="680.4219">Defined by</text><text fill="#000000" font-family="monospace" font-size="14" lengthAdjust="spacing" textLength="216" x="933" y="679.2939">$.aggregate.cancelledAmount</text><text fill="#000000" font-family="sans-serif" font-size="14" lengthAdjust="spacing" textLength="38" x="1153" y="680.4219">object</text></g><!--MD5=[fce0a99ff020773a13d941767c2fc94a]
link *start to Created--><g id="link_*start_Created"><path d="M511,26.25 C511,38.84 511,62.02 511,81.32 " fill="none" id="*start-to-Created" style="stroke:#181818;stroke-width:1.0;"/><polygon fill="#181818" points="511,86.65,515,77.65,511,81.65,507,77.65,511,86.65" style="stroke:#181818;stroke-width:1.0;"/></g><!--MD5=[9d19c78b5529e0e13f7984cdffea1146]
link Created to Terminated--><g id="link_Created_Terminated"><path d="M464.29,142.09 C394.26,181.96 261.69,257.43 181.24,303.22 " fill="none" id="Created-to-Terminated" style="stroke:#181818;stroke-width:1.0;"/><polygon fill="#181818" points="176.5,305.92,186.3005,304.9451,180.8456,303.447,182.3437,297.9921,176.5,305.92" style="stroke:#181818;stroke-width:1.0;"/></g><!--MD5=[20d76467f09b23a61637dca432dbe47b]
link Terminated to *end--><g id="link_Terminated_*end"><path d="M139,379.36 C204.27,472.97 377.47,721.39 417.61,778.97 " fill="none" id="Terminated-to-*end" style="stroke:#181818;stroke-width:1.0;"/><polygon fill="#181818" points="420.67,783.36,418.8061,773.6891,417.8113,779.2578,412.2426,778.263,420.67,783.36" style="stroke:#181818;stroke-width:1.0;"/></g><!--MD5=[acf53f44e228413b1ad67e40a8c22a46]
link Created to Aborted--><g id="link_Created_Aborted"><path d="M492.73,142.31 C465.87,181.73 415.54,255.6 384.29,301.46 " fill="none" id="Created-to-Aborted" style="stroke:#181818;stroke-width:1.0;"/><polygon fill="#181818" points="381.32,305.81,389.6944,300.6264,384.1362,301.6786,383.0841,296.1204,381.32,305.81" style="stroke:#181818;stroke-width:1.0;"/></g><!--MD5=[39b9cf5149661ce297afbb9d3abf96e5]
link Aborted to *end--><g id="link_Aborted_*end"><path d="M359.25,379.27 C362.53,426.55 369.5,512.38 381,585 C392.53,657.8 413.76,743.52 422.3,776.8 " fill="none" id="Aborted-to-*end" style="stroke:#181818;stroke-width:1.0;"/><polygon fill="#181818" points="423.65,782.03,425.2872,772.3182,422.4071,777.1869,417.5383,774.3068,423.65,782.03" style="stroke:#181818;stroke-width:1.0;"/></g><!--MD5=[9671585e5555cc24c66578011ffd87bb]
link Created to Expired--><g id="link_Created_Expired"><path d="M509.7,142.2 C506.15,215.33 496.23,419.28 491.98,506.78 " fill="none" id="Created-to-Expired" style="stroke:#181818;stroke-width:1.0;"/><polygon fill="#181818" points="491.73,511.87,496.1631,503.0753,491.9733,506.8759,488.1726,502.686,491.73,511.87" style="stroke:#181818;stroke-width:1.0;"/></g><!--MD5=[ccb4503d7804b2d580a0377579a9a66d]
link Expired to *end--><g id="link_Expired_*end"><path d="M472.44,585.33 C468.26,594.81 464.11,605.16 461,615 C442.41,673.72 431.66,746.71 427.73,776.91 " fill="none" id="Expired-to-*end" style="stroke:#181818;stroke-width:1.0;"/><polygon fill="#181818" points="427.07,782.04,432.1942,773.6292,427.713,777.0815,424.2607,772.6003,427.07,782.04" style="stroke:#181818;stroke-width:1.0;"/></g><!--MD5=[4dfec74e047e28c0bef0a1aaf16410b6]
link Created to Authorised--><g id="link_Created_Authorised"><path d="M561.05,142.04 C593.18,159.07 635.41,181.46 671.1,200.38 " fill="none" id="Created-to-Authorised" style="stroke:#181818;stroke-width:1.0;"/><polygon fill="#181818" points="675.86,202.91,669.7855,195.1575,671.4435,200.566,666.0351,202.2239,675.86,202.91" style="stroke:#181818;stroke-width:1.0;"/></g><!--MD5=[267b188a67ea6e5ca11f3d786ba8fb9f]
link Authorised to Capture--><g id="link_Authorised_Capture"><path d="M741.78,276.03 C740.56,311.5 738.69,365.97 737.41,403.31 " fill="none" id="Authorised-to-Capture" style="stroke:#181818;stroke-width:1.0;"/><polygon fill="#181818" points="737.23,408.69,741.536,399.8323,737.4013,403.6929,733.5407,399.5582,737.23,408.69" style="stroke:#181818;stroke-width:1.0;"/></g><!--MD5=[e32f0bf20d087f16420fa26ea15ca6ae]
link Capture to Refund--><g id="link_Capture_Refund"><path d="M721.02,482.03 C706.01,517.65 682.92,572.41 667.17,609.77 " fill="none" id="Capture-to-Refund" style="stroke:#181818;stroke-width:1.0;"/><polygon fill="#181818" points="665.1,614.69,672.2865,607.9555,667.0454,610.084,664.9169,604.8428,665.1,614.69" style="stroke:#181818;stroke-width:1.0;"/></g><!--MD5=[7d61ac6ed2e47c22eaef241e18c70f7f]
link Refund to *end--><g id="link_Refund_*end"><path d="M592.31,688.17 C540.36,720.29 467.83,765.14 438.77,783.1 " fill="none" id="Refund-to-*end" style="stroke:#181818;stroke-width:1.0;"/><polygon fill="#181818" points="434.18,785.94,443.9393,784.6152,438.4344,783.3131,439.7364,777.8082,434.18,785.94" style="stroke:#181818;stroke-width:1.0;"/><text fill="#000000" font-family="sans-serif" font-size="13" lengthAdjust="spacing" textLength="99" x="539" y="732.4951">Once payment is</text><text fill="#000000" font-family="sans-serif" font-size="13" lengthAdjust="spacing" textLength="76" x="552.5" y="748.8467">fully refunded</text></g><!--MD5=[5f19fb11d24116c1bffb722ba5b49da7]
link Created to Cancel--><g id="link_Created_Cancel"><path d="M597.46,122.15 C708.45,132.49 892.4,156.27 940,203 C1052.33,313.27 1045.16,521.67 1036.28,609.66 " fill="none" id="Created-to-Cancel" style="stroke:#181818;stroke-width:1.0;"/><polygon fill="#181818" points="1035.75,614.77,1040.6549,606.2294,1036.2645,609.7965,1032.6973,605.4062,1035.75,614.77" style="stroke:#181818;stroke-width:1.0;"/><text fill="#000000" font-family="sans-serif" font-size="13" lengthAdjust="spacing" textLength="147" x="1027" y="331.4951">Not possible if the user is</text><text fill="#000000" font-family="sans-serif" font-size="13" lengthAdjust="spacing" textLength="132" x="1034.5" y="347.8467">actively authorising the</text><text fill="#000000" font-family="sans-serif" font-size="13" lengthAdjust="spacing" textLength="50" x="1077.5" y="364.1982">payment</text></g><!--MD5=[58182d0739dbde683655fa48cc831458]
link Authorised to Cancel--><g id="link_Authorised_Cancel"><path d="M791.5,276.18 C831.49,307.58 887.54,356.38 925,409 C937.33,426.31 987.53,545.54 1014.18,609.75 " fill="none" id="Authorised-to-Cancel" style="stroke:#181818;stroke-width:1.0;"/><polygon fill="#181818" points="1016.22,614.65,1016.4767,604.8045,1014.3091,610.0296,1009.084,607.862,1016.22,614.65" style="stroke:#181818;stroke-width:1.0;"/></g><!--MD5=[f5c52f95f278275e9eb5731372c3deb3]
link Capture to Cancel--><g id="link_Capture_Cancel"><path d="M751.03,482.17 C765.96,513.51 791.73,558.18 827,585 C841.48,596.01 857.87,605.2 874.92,612.87 " fill="none" id="Capture-to-Cancel" style="stroke:#181818;stroke-width:1.0;"/><polygon fill="#181818" points="879.74,615,873.1169,607.7106,875.1645,612.9839,869.8912,615.0315,879.74,615" style="stroke:#181818;stroke-width:1.0;"/><text fill="#000000" font-family="sans-serif" font-size="13" lengthAdjust="spacing" textLength="101" x="828" y="545.9951">Not possible after</text><text fill="#000000" font-family="sans-serif" font-size="13" lengthAdjust="spacing" textLength="63" x="849" y="562.3467">full capture</text></g><!--MD5=[fe62373ca50d8b63990cd07c55700c74]
link Cancel to *end--><g id="link_Cancel_*end"><path d="M906.27,688 C832.42,708.31 736.8,733.37 651,752 C572.67,769.01 477.72,783.48 441.26,788.81 " fill="none" id="Cancel-to-*end" style="stroke:#181818;stroke-width:1.0;"/><polygon fill="#181818" points="435.93,789.59,445.416,792.2388,440.8769,788.8629,444.2527,784.3238,435.93,789.59" style="stroke:#181818;stroke-width:1.0;"/></g><!--MD5=[0ef68c7e4f2a6ee7f67394fbb79e48e0]
@startuml
hide empty description
[*] - -> Created
Created : Payment created via api
Created - -> Terminated
Terminated : The merchant has stopped the 
Terminated: process through the API
Terminated - -> [*]
Created - -> Aborted
Aborted : The end user has actively stopped the
Aborted: process by selecting Cancel or similar
Aborted - -> [*]
Created - -> Expired
Expired : The payment session has
Expired: expired due to inactivity
Expired - -> [*]
Created - -> Authorised
Authorised : User has approved payment
Authorised : Defined by ""$.aggregate.authorisedAmount"" object
Authorised - -> Capture
Capture : Payment fully or partially captured
Capture : Defined by ""$.aggregate.capturedAmount"" object
Capture - -> Refund
Refund : Payment fully or partially refunded
Refund : Defined by ""$.aggregate.refundedAmount"" object
Refund - -> [*] : Once payment is \nfully refunded
Created - -> Cancel : Not possible if the user is \nactively authorising the \npayment
Authorised - -> Cancel 
Capture - -> Cancel : Not possible after \nfull capture
Cancel : Cancels the remaining un-captured amount
Cancel : Defined by ""$.aggregate.cancelledAmount"" object
Cancel - -> [*]
@enduml

PlantUML version 1.2022.7(Mon Aug 22 19:01:30 CEST 2022)
(GPL source distribution)
Java Runtime: OpenJDK Runtime Environment
JVM: OpenJDK 64-Bit Server VM
Default Encoding: Cp1252
Language: en
Country: GB
--></g></svg>